<?xml version="1.0" encoding="UTF-8" ?>
<!DOCTYPE svg PUBLIC "-//W3C//DTD SVG 1.1//EN" "http://www.w3.org/Graphics/SVG/1.1/DTD/svg11.dtd">
<svg width="128pt" height="128pt" viewBox="0 0 128 128" version="1.1" xmlns="http://www.w3.org/2000/svg">
<g id="#ffffffff">
<path fill="#ffffff" opacity="1.00" d=" M 20.01 18.87 C 19.56 17.28 21.13 15.25 22.80 16.22 C 25.36 17.75 27.60 19.74 30.00 21.51 C 32.67 19.70 34.96 17.11 38.02 15.99 C 41.05 17.16 43.34 19.70 46.00 21.51 C 48.67 19.71 50.95 17.11 54.00 16.01 C 57.04 17.12 59.33 19.71 62.00 21.51 C 64.66 19.67 66.98 17.17 70.00 15.95 C 73.02 17.17 75.33 19.67 78.00 21.51 C 80.66 19.70 82.94 17.16 85.97 16.00 C 89.03 17.09 91.32 19.71 94.00 21.51 C 96.66 19.67 98.97 17.17 102.00 15.97 C 104.44 16.91 106.13 19.23 107.80 21.18 C 108.15 23.09 107.97 25.06 108.01 26.99 C 107.98 52.65 108.01 78.31 108.00 103.96 C 111.96 103.75 116.84 104.01 118.92 108.02 C 122.08 112.99 117.90 120.22 112.03 119.97 C 80.34 120.04 48.64 119.98 16.94 120.00 C 14.04 120.19 11.03 118.98 9.42 116.49 C 7.03 113.21 7.79 108.16 11.06 105.74 C 13.53 103.62 16.98 104.06 20.00 103.96 C 20.01 75.60 19.99 47.23 20.01 18.87 M 30.02 26.00 C 27.70 25.33 26.02 23.32 24.02 22.03 C 23.97 46.63 24.02 71.24 24.00 95.84 C 24.47 96.11 25.42 96.63 25.90 96.89 C 25.80 99.49 27.01 103.01 24.01 104.39 C 23.99 108.26 24.00 112.13 24.00 116.00 C 50.67 116.00 77.33 116.00 104.00 116.00 C 104.00 112.13 104.01 108.26 103.99 104.39 C 100.98 103.03 102.21 99.51 102.08 96.92 C 102.56 96.64 103.52 96.10 104.01 95.83 C 103.99 71.50 104.00 47.17 104.00 22.84 C 103.27 22.11 102.54 21.37 101.82 20.64 C 99.18 22.35 96.94 24.87 94.00 26.00 C 91.00 24.84 88.70 22.26 86.00 20.51 C 83.29 22.26 81.00 24.84 77.99 26.00 C 75.00 24.82 72.69 22.27 70.00 20.51 C 67.30 22.28 64.99 24.80 61.99 26.02 C 59.00 24.79 56.69 22.28 54.00 20.51 C 51.28 22.25 48.99 24.89 45.95 26.00 C 42.99 24.78 40.68 22.27 38.00 20.51 C 35.31 22.26 33.01 24.81 30.02 26.00 M 12.72 114.30 C 14.39 116.66 17.55 115.86 20.00 116.03 C 20.00 113.34 20.00 110.65 20.00 107.96 C 18.35 107.99 16.68 107.93 15.04 108.16 C 12.42 108.67 11.05 112.17 12.72 114.30 M 108.00 107.96 C 108.00 110.65 108.00 113.34 108.00 116.03 C 109.66 116.00 111.33 116.07 112.98 115.85 C 115.60 115.34 116.96 111.82 115.24 109.73 C 113.67 107.29 110.41 108.19 108.00 107.96 Z" />
<path fill="#ffffff" opacity="1.00" d=" M 37.16 36.20 C 47.41 35.73 57.72 36.14 67.99 35.99 C 69.27 36.12 71.19 35.67 71.83 37.19 C 72.36 38.34 71.52 40.06 70.15 39.92 C 59.41 40.06 48.66 40.04 37.93 39.93 C 35.88 40.15 35.25 36.84 37.16 36.20 Z" />
<path fill="#ffffff" opacity="1.00" d=" M 77.17 36.19 C 81.43 35.81 85.74 35.99 90.02 36.07 C 92.12 35.91 92.72 39.03 90.86 39.83 C 86.57 40.18 82.25 40.01 77.95 39.94 C 75.88 40.16 75.26 36.87 77.17 36.19 Z" />
<path fill="#ffffff" opacity="1.00" d=" M 37.14 44.19 C 44.74 43.79 52.38 44.02 59.99 44.07 C 62.56 43.77 62.59 48.18 60.05 47.94 C 52.70 48.05 45.34 48.04 37.99 47.94 C 35.90 48.18 35.25 44.93 37.14 44.19 Z" />
<path fill="#ffffff" opacity="1.00" d=" M 81.86 51.82 C 82.03 50.31 81.94 47.97 84.07 47.98 C 86.09 48.13 85.93 50.35 86.15 51.82 C 89.16 52.34 92.07 54.62 92.00 57.92 C 92.17 59.40 92.13 62.15 89.99 61.93 C 86.50 62.02 89.51 56.16 86.07 56.06 C 84.14 56.14 80.28 55.06 80.06 57.97 C 80.32 60.49 78.95 64.01 81.15 65.84 C 84.15 66.32 87.78 65.27 90.15 67.70 C 92.94 70.38 91.82 74.66 91.96 78.10 C 92.07 81.41 89.11 83.65 86.12 84.21 C 85.95 85.57 86.05 88.18 84.00 87.93 C 81.95 88.22 82.05 85.57 81.88 84.22 C 78.36 83.69 75.43 80.60 75.97 76.90 C 75.56 75.33 77.15 73.25 78.77 74.23 C 81.17 75.19 78.73 79.86 81.93 79.95 C 83.84 79.80 86.58 80.80 87.82 78.86 C 87.95 76.16 88.56 73.07 87.41 70.56 C 84.61 69.20 80.89 70.96 78.33 68.73 C 74.98 66.19 76.15 61.51 76.04 57.90 C 75.89 54.59 78.87 52.34 81.86 51.82 Z" />
<path fill="#ffffff" opacity="1.00" d=" M 37.17 60.19 C 44.10 59.80 51.08 60.01 58.03 60.07 C 59.46 59.92 60.32 61.55 59.88 62.78 C 59.19 64.32 57.38 63.91 56.03 64.01 C 50.03 63.95 44.01 64.10 38.01 63.94 C 35.91 64.21 35.22 60.87 37.17 60.19 Z" />
<path fill="#ffffff" opacity="1.00" d=" M 37.17 68.21 C 45.05 67.71 53.00 68.16 60.91 67.98 C 62.56 68.19 64.89 67.41 65.88 69.21 C 66.31 70.49 65.47 72.08 63.99 71.94 C 55.31 72.04 46.62 72.05 37.94 71.94 C 35.90 72.17 35.25 68.83 37.17 68.21 Z" />
<path fill="#ffffff" opacity="1.00" d=" M 37.10 76.21 C 40.31 75.84 43.59 75.86 46.80 76.19 C 48.36 76.78 48.34 79.08 46.92 79.81 C 43.95 80.17 40.94 80.04 37.96 79.94 C 35.91 80.14 35.26 76.98 37.10 76.21 Z" />
<path fill="#ffffff" opacity="1.00" d=" M 53.17 76.19 C 55.46 75.94 60.54 74.99 59.91 78.77 C 58.66 80.80 55.88 79.82 53.91 79.95 C 51.86 80.09 51.27 76.88 53.17 76.19 Z" />
<path fill="#ffffff" opacity="1.00" d=" M 33.20 96.20 C 37.10 95.33 36.79 102.15 34.84 103.90 C 30.97 104.66 31.94 99.48 32.18 97.16 C 32.44 96.92 32.95 96.44 33.20 96.20 Z" />
<path fill="#ffffff" opacity="1.00" d=" M 43.19 96.12 C 46.71 95.33 46.09 99.86 45.95 102.02 C 46.17 104.59 41.80 104.59 42.04 102.00 C 42.17 100.07 41.23 97.36 43.19 96.12 Z" />
<path fill="#ffffff" opacity="1.00" d=" M 53.14 96.12 C 56.69 95.28 56.10 99.81 55.96 101.99 C 56.17 104.55 51.89 104.63 52.05 102.06 C 52.16 100.12 51.26 97.45 53.14 96.12 Z" />
<path fill="#ffffff" opacity="1.00" d=" M 63.24 96.19 C 67.10 95.37 66.80 102.20 64.82 103.90 C 60.96 104.64 61.95 99.44 62.19 97.13 C 62.45 96.89 62.98 96.42 63.24 96.19 Z" />
<path fill="#ffffff" opacity="1.00" d=" M 73.12 96.13 C 76.70 95.27 76.11 99.86 75.95 102.06 C 76.14 104.55 71.89 104.60 72.05 102.10 C 72.16 100.15 71.26 97.48 73.12 96.13 Z" />
<path fill="#ffffff" opacity="1.00" d=" M 83.13 96.13 C 86.70 95.28 86.11 99.85 85.95 102.04 C 86.15 104.56 81.86 104.59 82.05 102.06 C 82.16 100.12 81.25 97.45 83.13 96.13 Z" />
<path fill="#ffffff" opacity="1.00" d=" M 93.22 96.11 C 96.73 95.36 96.08 99.88 95.95 102.04 C 96.14 104.57 91.86 104.60 92.05 102.05 C 92.18 100.11 91.20 97.33 93.22 96.11 Z" />
</g>
</svg>
