<?xml version="1.0" encoding="UTF-8" ?>
<!DOCTYPE svg PUBLIC "-//W3C//DTD SVG 1.1//EN" "http://www.w3.org/Graphics/SVG/1.1/DTD/svg11.dtd">
<svg width="53pt" height="54pt" viewBox="0 0 53 54" version="1.1" xmlns="http://www.w3.org/2000/svg">
<g id="#333434ff">
</g>
<g id="#fefefeff">
<path fill="#fefefe" opacity="1.00" d=" M 9.51 12.97 C 9.22 9.72 12.28 7.94 14.71 6.57 C 18.14 6.42 21.51 7.26 24.28 9.35 C 25.15 9.33 26.01 9.30 26.88 9.26 C 30.63 8.23 35.14 7.43 38.58 9.74 C 40.95 11.36 41.14 14.46 41.56 17.03 C 40.29 19.82 38.03 21.86 35.00 22.54 C 34.98 24.53 34.96 26.53 34.95 28.53 C 35.85 28.51 37.67 28.49 38.58 28.47 C 43.33 31.52 41.44 37.64 41.47 42.33 C 39.62 42.43 37.77 42.50 35.91 42.54 C 35.91 40.38 35.91 38.23 35.90 36.07 C 28.87 36.09 21.84 36.04 14.81 36.11 C 14.79 38.27 14.77 40.43 14.72 42.59 C 12.97 42.52 11.23 42.43 9.48 42.32 C 9.31 39.20 9.16 36.07 9.38 32.95 C 9.32 30.93 11.39 29.88 12.59 28.55 C 13.74 28.54 14.89 28.53 16.03 28.50 C 16.03 25.81 16.03 23.11 16.03 20.41 C 12.65 19.46 8.89 17.03 9.51 12.97 M 14.69 17.27 C 18.42 18.10 23.44 17.30 25.18 21.70 C 22.88 21.55 20.75 20.66 18.56 20.03 C 18.51 20.59 18.42 21.70 18.37 22.26 C 21.80 23.07 20.13 26.95 20.73 29.36 C 21.07 27.12 21.28 24.85 21.69 22.62 C 24.13 24.24 23.41 27.04 23.26 29.50 C 23.84 27.24 24.29 24.94 25.11 22.75 C 25.29 24.93 25.34 27.12 25.26 29.31 C 25.65 27.18 25.47 24.74 27.24 23.13 C 27.52 25.14 27.70 27.15 27.77 29.18 C 28.02 26.85 28.37 24.52 28.98 22.25 C 29.66 24.54 29.94 26.92 30.34 29.28 C 30.45 26.85 30.47 24.41 30.94 22.03 C 32.41 23.97 32.46 26.40 32.85 28.69 C 32.66 26.44 32.44 24.19 32.35 21.94 C 27.94 19.77 23.95 15.97 18.60 17.16 C 18.94 16.57 19.63 15.38 19.97 14.78 C 26.06 12.88 29.95 20.28 35.82 19.67 C 39.31 18.93 39.84 13.78 37.22 11.79 C 34.84 9.68 31.45 10.86 28.60 10.52 C 29.40 11.60 30.26 12.62 31.19 13.59 C 24.93 15.31 21.18 7.65 15.02 9.37 C 11.20 9.73 10.99 16.46 14.69 17.27 M 35.14 30.56 C 35.13 31.78 33.88 34.20 36.12 33.69 C 37.96 34.26 37.50 31.95 37.78 30.86 C 37.12 30.79 35.80 30.64 35.14 30.56 Z" />
<path fill="#fefefe" opacity="1.00" d=" M 16.53 50.33 C 16.13 46.06 16.28 41.77 16.27 37.48 C 22.34 37.50 28.40 37.47 34.47 37.51 C 34.44 41.39 34.70 45.29 34.33 49.16 C 34.10 49.44 33.65 49.99 33.43 50.27 C 27.81 50.69 22.16 50.44 16.53 50.33 M 17.51 41.44 C 22.68 42.02 27.95 42.02 33.12 41.44 C 28.12 40.11 22.51 40.08 17.51 41.44 M 17.32 45.01 C 22.52 45.88 27.89 45.73 33.10 45.12 C 28.04 43.69 22.44 43.97 17.32 45.01 Z" />
</g>
</svg>
