<?xml version="1.0" encoding="UTF-8" ?>
<!DOCTYPE svg PUBLIC "-//W3C//DTD SVG 1.1//EN" "http://www.w3.org/Graphics/SVG/1.1/DTD/svg11.dtd">
<svg width="52pt" height="52pt" viewBox="0 0 52 52" version="1.1" xmlns="http://www.w3.org/2000/svg">
<g id="#ffffffff">
<path fill="#ffffff" opacity="1.00" d=" M 25.61 0.00 L 26.03 0.00 C 33.44 -0.23 38.79 6.96 38.12 13.99 C 36.80 14.00 35.48 14.00 34.15 14.00 C 33.92 11.35 33.85 8.32 31.72 6.38 C 28.06 2.45 20.60 3.65 18.66 8.77 C 17.46 12.38 18.17 16.27 18.00 20.00 C 24.73 20.06 31.45 19.88 38.17 20.06 C 42.34 20.00 46.03 23.74 45.95 27.90 C 46.05 33.30 46.05 38.71 45.95 44.12 C 46.00 48.12 42.68 51.47 38.81 52.00 L 13.03 52.00 C 9.24 51.39 6.00 48.09 6.05 44.16 C 5.99 38.38 5.84 32.59 6.14 26.82 C 6.50 22.81 10.29 20.30 14.00 19.77 C 14.19 14.90 13.10 9.41 16.12 5.16 C 18.22 2.00 21.85 0.16 25.61 0.00 M 22.34 32.41 C 21.32 34.31 22.61 36.27 23.94 37.59 C 24.15 39.87 23.02 44.70 26.83 43.90 C 28.86 42.53 27.68 39.66 28.06 37.59 C 29.65 36.15 30.83 33.64 29.24 31.73 C 27.68 29.15 23.44 29.64 22.34 32.41 Z" />
</g>
</svg>
