<?xml version="1.0" encoding="UTF-8" ?>
<!DOCTYPE svg PUBLIC "-//W3C//DTD SVG 1.1//EN" "http://www.w3.org/Graphics/SVG/1.1/DTD/svg11.dtd">
<svg width="48pt" height="51pt" viewBox="0 0 48 51" version="1.1" xmlns="http://www.w3.org/2000/svg">
<g id="#353535ff">
</g>
<g id="#fefefeff">
<path fill="#fefefe" opacity="1.00" d=" M 6.54 3.58 C 9.68 1.48 13.61 2.39 17.15 2.01 C 20.47 1.75 24.36 1.60 26.79 4.32 C 30.02 7.69 33.75 10.67 36.40 14.53 C 37.02 17.40 36.61 20.38 36.66 23.29 C 35.55 23.70 34.46 24.12 33.36 24.55 C 33.11 21.86 33.67 18.98 32.50 16.46 C 29.22 16.07 25.85 16.46 22.64 15.51 C 22.62 12.44 22.62 9.37 22.62 6.31 C 18.80 5.27 14.80 5.68 10.90 5.73 C 8.58 5.58 7.15 7.94 7.38 10.02 C 7.36 19.78 7.27 29.54 7.45 39.30 C 7.83 39.84 8.58 40.92 8.95 41.46 C 13.22 41.76 17.50 41.64 21.78 41.66 C 21.42 38.09 20.39 33.88 22.91 30.85 C 25.67 26.74 31.59 25.19 35.91 27.73 C 38.90 28.96 40.17 32.07 41.42 34.80 C 41.69 39.10 39.83 43.76 35.76 45.66 C 32.62 47.38 29.00 46.52 25.77 45.55 C 20.23 44.87 14.61 45.73 9.06 45.16 C 7.25 44.78 6.05 43.31 4.77 42.11 C 4.44 41.10 4.09 40.10 3.73 39.10 C 3.59 28.71 3.75 18.31 3.65 7.91 C 4.46 6.39 4.99 4.54 6.54 3.58 M 29.62 31.51 C 29.58 32.75 29.54 33.98 29.50 35.21 C 28.66 35.22 26.98 35.24 26.14 35.25 C 26.22 36.29 26.29 37.33 26.37 38.38 C 27.17 38.37 28.77 38.35 29.57 38.34 C 29.56 39.16 29.56 40.79 29.55 41.61 C 30.66 41.63 31.77 41.66 32.88 41.69 C 32.89 40.86 32.92 39.20 32.93 38.37 C 34.04 38.35 35.15 38.32 36.25 38.30 C 36.32 37.28 36.39 36.26 36.47 35.24 C 35.29 35.10 34.11 34.96 32.93 34.82 C 32.91 34.04 32.87 32.48 32.84 31.71 C 32.04 31.66 30.42 31.56 29.62 31.51 Z" />
</g>
</svg>
