<?xml version="1.0" encoding="UTF-8" ?>
<!DOCTYPE svg PUBLIC "-//W3C//DTD SVG 1.1//EN" "http://www.w3.org/Graphics/SVG/1.1/DTD/svg11.dtd">
<svg width="60pt" height="60pt" viewBox="0 0 60 60" version="1.1" xmlns="http://www.w3.org/2000/svg">
<g id="#ffffffff">
<path fill="#ffffff" opacity="1.00" d=" M 27.12 6.18 C 39.07 4.49 51.25 13.20 53.47 25.06 C 55.19 33.06 52.48 41.89 46.44 47.43 C 40.35 53.28 31.01 55.55 22.96 52.91 C 16.01 50.85 10.19 45.40 7.62 38.63 C 5.22 32.48 5.52 25.33 8.46 19.41 C 11.90 12.21 19.21 7.11 27.12 6.18 M 14.94 16.69 C 17.29 18.37 19.64 20.05 22.00 21.71 C 23.53 19.82 25.66 18.66 27.99 18.04 C 27.99 16.70 28.00 15.35 28.00 14.00 C 29.33 14.00 30.66 14.00 31.99 14.00 C 32.00 15.35 32.01 16.70 32.01 18.05 C 35.47 18.74 38.36 21.15 39.09 24.71 C 37.56 24.79 36.03 24.84 34.50 24.89 C 33.29 21.10 27.41 20.86 25.84 24.46 C 28.43 26.93 31.79 28.03 35.18 28.88 C 37.78 29.53 38.70 32.10 39.61 34.28 C 42.02 36.44 44.83 38.08 47.41 40.01 C 49.61 35.68 50.66 30.67 49.56 25.87 C 47.87 17.23 39.86 10.34 31.04 10.06 C 24.99 9.62 19.08 12.36 14.94 16.69 M 12.55 19.92 C 10.57 24.01 9.44 28.61 10.26 33.15 C 11.48 41.50 18.52 48.56 26.88 49.73 C 33.55 50.93 40.44 48.17 45.03 43.32 C 34.19 35.53 23.38 27.70 12.55 19.92 Z" />
<path fill="#ffffff" opacity="1.00" d=" M 20.65 35.08 C 22.15 35.07 23.65 35.08 25.15 35.09 C 26.06 36.46 27.13 37.95 28.98 37.89 C 31.47 37.90 33.30 39.60 35.16 41.00 C 34.11 41.32 33.06 41.63 32.00 41.94 C 32.00 43.29 32.00 44.65 32.00 46.00 C 30.67 46.00 29.34 46.00 28.00 46.00 C 28.00 44.67 27.99 43.34 27.99 42.01 C 24.38 41.40 21.01 38.96 20.65 35.08 Z" />
</g>
</svg>
