<?xml version="1.0" encoding="UTF-8" ?>
<!DOCTYPE svg PUBLIC "-//W3C//DTD SVG 1.1//EN" "http://www.w3.org/Graphics/SVG/1.1/DTD/svg11.dtd">
<svg width="52pt" height="53pt" viewBox="0 0 52 53" version="1.1" xmlns="http://www.w3.org/2000/svg">
<g id="#363636ff">
</g>
<g id="#fefefeff">
<path fill="#fefefe" opacity="1.00" d=" M 18.69 3.09 C 23.02 3.33 27.26 4.24 31.56 4.75 C 31.52 5.45 31.45 6.84 31.42 7.54 C 34.12 8.13 36.85 8.58 39.61 8.66 C 39.64 10.09 39.64 11.52 39.65 12.94 C 29.47 11.79 19.34 10.18 9.25 8.51 C 9.35 7.16 9.45 5.80 9.55 4.45 C 12.47 4.79 15.36 5.33 18.27 5.67 C 18.38 5.03 18.59 3.74 18.69 3.09 Z" />
<path fill="#fefefe" opacity="1.00" d=" M 9.17 14.34 C 19.31 14.32 29.44 14.27 39.58 14.36 C 39.57 15.06 39.56 16.45 39.55 17.14 C 39.00 17.17 37.90 17.24 37.36 17.27 C 37.33 26.58 37.47 35.90 37.31 45.20 C 37.04 45.45 36.49 45.95 36.22 46.20 C 27.99 46.38 19.75 46.20 11.51 46.27 C 10.57 36.70 11.36 27.11 11.22 17.52 C 10.72 17.41 9.72 17.20 9.22 17.09 C 9.21 16.40 9.18 15.03 9.17 14.34 M 15.61 41.69 L 17.29 41.22 C 18.03 34.06 17.66 26.75 17.50 19.55 C 17.08 19.24 16.23 18.61 15.80 18.30 C 14.79 26.01 15.19 33.93 15.61 41.69 M 20.73 19.16 C 20.70 25.42 20.73 31.69 20.69 37.95 C 20.54 39.56 21.03 40.96 22.16 42.15 C 23.37 34.55 22.40 26.77 22.71 19.09 C 22.22 19.11 21.22 19.14 20.73 19.16 M 25.69 19.38 C 25.77 26.48 25.71 33.58 25.71 40.68 C 26.55 40.69 27.39 40.70 28.23 40.71 C 28.21 33.55 28.20 26.39 28.24 19.23 C 27.39 19.28 26.54 19.33 25.69 19.38 M 31.33 19.15 C 31.13 26.73 30.61 34.46 31.68 41.99 L 33.01 40.94 C 33.43 33.65 33.39 26.26 33.02 18.96 L 31.93 18.56 L 31.33 19.15 Z" />
</g>
</svg>
