<?xml version="1.0" encoding="UTF-8" ?>
<!DOCTYPE svg PUBLIC "-//W3C//DTD SVG 1.1//EN" "http://www.w3.org/Graphics/SVG/1.1/DTD/svg11.dtd">
<svg width="96pt" height="96pt" viewBox="0 0 96 96" version="1.1" xmlns="http://www.w3.org/2000/svg">
<g id="#ffb74dff">
<path fill="#ffb74d" opacity="1.00" d=" M 22.17 18.24 C 26.32 16.79 30.84 20.75 29.90 25.04 C 29.39 29.36 23.67 31.56 20.35 28.79 C 16.53 26.16 17.63 19.41 22.17 18.24 Z" />
<path fill="#ffb74d" opacity="1.00" d=" M 70.23 18.23 C 74.36 16.83 78.84 20.77 77.90 25.05 C 77.38 29.36 71.68 31.56 68.36 28.80 C 64.51 26.17 65.64 19.35 70.23 18.23 Z" />
<path fill="#ffb74d" opacity="1.00" d=" M 20.87 39.06 C 19.03 37.43 20.37 34.12 22.77 34.05 C 24.61 34.09 26.21 35.23 27.83 35.99 C 31.88 39.41 37.28 37.30 41.99 38.25 C 44.78 39.05 44.41 43.27 41.71 43.99 C 38.47 44.02 35.22 43.99 31.98 44.04 C 30.54 44.13 29.19 43.73 27.98 42.98 C 25.65 41.61 23.13 40.56 20.87 39.06 Z" />
<path fill="#ffb74d" opacity="1.00" d=" M 68.14 36.07 C 69.74 35.29 71.30 34.32 73.08 34.02 C 75.55 34.02 77.04 37.41 75.09 39.07 C 72.85 40.57 70.34 41.62 68.02 42.97 C 66.80 43.71 65.46 44.15 64.02 44.04 C 60.78 43.99 57.53 44.02 54.28 43.99 C 51.58 43.26 51.22 39.06 54.00 38.25 C 58.70 37.30 64.05 39.38 68.14 36.07 Z" />
</g>
<g id="#03a9f4ff">
<path fill="#03a9f4" opacity="1.00" d=" M 18.91 32.92 C 22.12 30.71 26.28 32.78 27.83 35.99 C 26.21 35.23 24.61 34.09 22.77 34.05 C 20.37 34.12 19.03 37.43 20.87 39.06 C 23.13 40.56 25.65 41.61 27.98 42.98 C 28.00 45.33 28.00 47.68 28.00 50.04 C 28.50 50.02 29.50 49.99 30.00 49.97 C 29.14 52.61 28.25 55.24 27.34 57.87 C 25.00 57.82 22.65 57.82 20.31 57.79 C 14.61 56.11 16.15 49.43 16.00 44.97 C 16.28 40.92 14.71 35.45 18.91 32.92 Z" />
<path fill="#03a9f4" opacity="1.00" d=" M 68.14 36.07 C 69.61 32.42 74.47 30.65 77.66 33.25 C 81.23 36.07 79.67 41.11 80.00 45.01 C 80.00 49.62 81.20 56.42 75.33 58.00 C 73.11 58.02 70.89 58.00 68.68 58.02 C 67.77 55.34 66.89 52.65 66.00 49.97 C 66.50 49.98 67.50 50.02 68.00 50.04 C 68.00 47.68 68.00 45.33 68.02 42.97 C 70.34 41.62 72.85 40.57 75.09 39.07 C 77.04 37.41 75.55 34.02 73.08 34.02 C 71.30 34.32 69.74 35.29 68.14 36.07 Z" />
<path fill="#03a9f4" opacity="1.00" d=" M 33.85 66.58 C 35.08 64.88 36.51 63.35 38.09 61.97 C 38.72 61.98 39.97 61.99 40.59 61.99 C 41.01 66.36 41.88 70.69 41.99 75.07 C 41.08 79.31 34.54 78.57 34.04 74.41 C 34.02 71.80 33.94 69.19 33.85 66.58 Z" />
<path fill="#03a9f4" opacity="1.00" d=" M 55.40 61.99 C 56.03 61.99 57.28 61.98 57.91 61.97 C 59.48 63.33 60.88 64.87 62.16 66.51 C 62.09 68.95 61.97 71.39 61.96 73.83 C 62.23 78.43 54.98 79.56 54.10 74.93 C 54.02 70.60 55.04 66.31 55.40 61.99 Z" />
</g>
<g id="#b0bec5ff">
<path fill="#b0bec5" opacity="1.00" d=" M 8.02 36.04 C 7.80 33.86 11.13 33.23 11.83 35.24 C 13.32 42.32 14.12 49.55 15.55 56.65 C 16.33 58.52 18.86 57.47 20.31 57.79 C 22.65 57.82 25.00 57.82 27.34 57.87 C 26.89 59.25 26.41 60.62 25.96 62.01 C 23.92 62.00 21.88 62.00 19.84 61.99 C 19.14 67.32 18.63 72.67 17.99 78.00 C 16.66 77.99 15.33 77.99 14.00 78.00 C 14.58 72.63 15.21 67.28 15.75 61.91 C 13.66 60.98 11.76 59.30 11.41 56.94 C 10.27 49.98 9.00 43.03 8.02 36.04 Z" />
<path fill="#b0bec5" opacity="1.00" d=" M 84.18 35.16 C 84.89 33.18 88.23 33.91 87.98 36.05 C 86.97 43.04 85.74 50.01 84.57 56.99 C 84.21 59.34 82.30 60.97 80.25 61.92 C 80.80 67.28 81.41 72.64 82.00 78.00 C 80.67 78.00 79.34 78.00 78.01 78.00 C 77.38 72.67 76.82 67.33 76.19 62.00 C 74.13 62.00 72.08 61.99 70.03 62.01 C 69.58 60.68 69.12 59.35 68.68 58.02 C 70.89 58.00 73.11 58.02 75.33 58.00 C 76.99 57.76 79.71 58.73 80.49 56.60 C 81.90 49.49 82.70 42.26 84.18 35.16 Z" />
<path fill="#b0bec5" opacity="1.00" d=" M 30.19 66.63 C 31.21 68.05 32.73 67.55 33.85 66.58 C 33.94 69.19 34.02 71.80 34.04 74.41 C 34.03 75.31 34.01 77.10 34.00 78.00 C 32.67 78.00 31.33 78.00 30.00 78.00 C 30.07 74.21 29.81 70.41 30.19 66.63 Z" />
<path fill="#b0bec5" opacity="1.00" d=" M 62.16 66.51 C 62.65 66.84 63.62 67.52 64.10 67.85 C 64.51 67.54 65.33 66.93 65.74 66.62 C 66.27 70.39 65.89 74.21 66.00 78.00 C 64.67 78.00 63.33 78.00 62.00 78.00 C 61.99 76.61 61.98 75.22 61.96 73.83 C 61.97 71.39 62.09 68.95 62.16 66.51 Z" />
</g>
<g id="#b3e5fcff">
<path fill="#b3e5fc" opacity="1.00" d=" M 31.98 44.04 C 35.22 43.99 38.47 44.02 41.71 43.99 C 45.90 44.00 50.09 44.00 54.28 43.99 C 57.53 44.02 60.78 43.99 64.02 44.04 L 64.13 44.48 C 61.56 50.13 60.06 56.17 57.91 61.97 C 57.28 61.98 56.03 61.99 55.40 61.99 C 50.47 62.01 45.53 62.00 40.59 61.99 C 39.97 61.99 38.72 61.98 38.09 61.97 C 35.98 56.16 34.45 50.12 31.87 44.48 L 31.98 44.04 Z" />
</g>
<g id="#e1f5feff">
<path fill="#e1f5fe" opacity="1.00" d=" M 31.87 44.48 C 34.45 50.12 35.98 56.16 38.09 61.97 C 36.51 63.35 35.08 64.88 33.85 66.58 C 32.73 67.55 31.21 68.05 30.19 66.63 C 29.04 64.86 27.49 63.43 25.96 62.01 C 26.41 60.62 26.89 59.25 27.34 57.87 C 28.25 55.24 29.14 52.61 30.00 49.97 C 30.62 48.14 31.28 46.32 31.87 44.48 Z" />
<path fill="#e1f5fe" opacity="1.00" d=" M 57.91 61.97 C 60.06 56.17 61.56 50.13 64.13 44.48 C 64.72 46.32 65.37 48.14 66.00 49.97 C 66.89 52.65 67.77 55.34 68.68 58.02 C 69.12 59.35 69.58 60.68 70.03 62.01 C 68.48 63.44 66.98 64.91 65.74 66.62 C 65.33 66.93 64.51 67.54 64.10 67.85 C 63.62 67.52 62.65 66.84 62.16 66.51 C 60.88 64.87 59.48 63.33 57.91 61.97 Z" />
</g>
</svg>
