<?xml version="1.0" encoding="UTF-8" ?>
<!DOCTYPE svg PUBLIC "-//W3C//DTD SVG 1.1//EN" "http://www.w3.org/Graphics/SVG/1.1/DTD/svg11.dtd">
<svg width="240pt" height="240pt" viewBox="0 0 240 240" version="1.1" xmlns="http://www.w3.org/2000/svg">
<g id="#ffffffff">
<path fill="#ffffff" opacity="1.00" d=" M 45.35 36.55 C 46.42 32.40 50.71 29.66 54.91 30.00 C 98.28 30.00 141.65 30.00 185.02 30.00 C 189.26 29.63 193.57 32.37 194.64 36.57 C 195.34 40.33 194.88 44.20 195.00 48.00 C 192.00 48.00 189.00 48.00 186.00 48.00 C 185.48 57.05 188.13 67.61 181.39 75.03 C 186.94 75.02 192.49 74.93 198.04 75.04 C 202.46 74.91 206.52 78.58 206.88 82.97 C 207.14 86.31 206.96 89.66 207.00 93.00 C 204.00 93.00 201.00 93.00 198.00 93.00 C 197.96 100.36 198.09 107.72 197.94 115.08 C 197.75 122.78 193.88 130.09 188.03 135.02 C 195.38 135.02 202.73 134.93 210.07 135.04 C 214.47 134.93 218.51 138.58 218.88 142.95 C 219.14 146.29 218.96 149.65 219.00 153.00 C 216.00 153.00 213.00 153.00 210.00 153.00 C 209.93 161.68 210.14 170.37 209.89 179.05 C 209.29 192.15 199.93 204.23 187.47 208.25 C 183.77 209.50 179.87 210.04 175.98 210.01 C 137.97 209.96 99.96 210.06 61.95 209.96 C 45.82 209.80 31.33 196.14 30.18 180.07 C 29.78 171.06 30.10 162.02 30.00 153.00 C 27.00 153.00 24.00 153.00 21.00 153.00 C 21.04 149.65 20.86 146.29 21.11 142.95 C 21.46 138.57 25.57 134.93 29.95 135.04 C 37.29 134.93 44.63 135.02 51.97 135.02 C 46.12 130.10 42.23 122.79 42.05 115.09 C 41.92 107.73 42.04 100.36 42.00 93.00 C 39.00 93.00 36.00 93.00 33.00 93.00 C 33.04 89.67 32.86 86.34 33.10 83.01 C 33.42 78.62 37.53 74.95 41.92 75.04 C 47.48 74.93 53.04 75.02 58.60 75.03 C 51.84 67.62 54.52 57.05 54.00 48.00 C 51.00 48.00 48.00 48.00 45.00 48.00 C 45.12 44.19 44.66 40.32 45.35 36.55 M 50.93 42.01 C 54.50 42.22 58.26 41.44 61.71 42.54 C 64.18 44.27 62.62 47.75 60.01 48.30 C 60.06 53.57 59.86 58.84 60.09 64.10 C 60.51 70.06 65.95 75.05 71.91 74.99 C 103.95 75.01 135.99 75.00 168.03 74.99 C 173.99 75.06 179.48 70.10 179.90 64.14 C 180.14 58.87 179.94 53.58 179.99 48.30 C 177.38 47.75 175.82 44.27 178.29 42.54 C 181.74 41.43 185.50 42.22 189.08 42.01 C 189.08 39.78 189.28 36.09 186.16 36.04 C 142.06 35.97 97.96 35.97 53.86 36.04 C 50.72 36.08 50.89 39.77 50.93 42.01 M 39.89 81.90 C 38.50 83.21 39.21 85.32 38.93 87.01 C 42.49 87.21 46.24 86.45 49.68 87.52 C 52.18 89.23 50.63 92.75 48.01 93.30 C 48.07 100.86 47.85 108.43 48.11 115.99 C 48.84 126.44 58.48 135.17 68.93 134.99 C 102.95 135.01 136.96 135.00 170.97 135.00 C 181.42 135.21 191.08 126.54 191.86 116.10 C 192.18 108.51 191.92 100.90 191.99 93.30 C 189.36 92.75 187.80 89.20 190.34 87.51 C 193.78 86.45 197.52 87.21 201.08 87.01 C 201.10 84.75 201.25 81.01 198.06 81.04 C 146.69 80.94 95.32 81.05 43.95 80.98 C 42.58 81.09 40.90 80.69 39.89 81.90 M 27.89 141.89 C 26.49 143.20 27.21 145.32 26.93 147.01 C 30.49 147.20 34.21 146.46 37.66 147.51 C 40.19 149.20 38.64 152.74 36.01 153.29 C 36.07 161.88 35.85 170.47 36.11 179.06 C 36.81 192.31 48.65 203.74 61.93 203.94 C 100.30 204.06 138.67 203.98 177.04 203.98 C 190.69 204.26 203.16 192.69 203.88 179.07 C 204.16 170.48 203.93 161.89 203.99 153.30 C 201.35 152.75 199.79 149.18 202.36 147.50 C 205.80 146.46 209.52 147.21 213.08 147.01 C 213.10 144.75 213.26 141.02 210.07 141.04 C 150.73 140.94 91.38 141.05 32.03 140.98 C 30.64 141.10 28.93 140.67 27.89 141.89 Z" />
<path fill="#ffffff" opacity="1.00" d=" M 70.38 42.49 C 72.26 41.24 75.09 42.72 74.98 45.02 C 75.06 47.26 72.17 48.91 70.34 47.47 C 68.57 46.39 68.62 43.56 70.38 42.49 Z" />
<path fill="#ffffff" opacity="1.00" d=" M 82.38 42.49 C 83.93 41.50 86.31 42.22 86.80 44.06 C 87.74 46.18 85.26 48.71 83.12 47.85 C 80.76 47.23 80.29 43.73 82.38 42.49 Z" />
<path fill="#ffffff" opacity="1.00" d=" M 94.38 42.49 C 97.60 40.27 100.91 45.60 97.59 47.51 C 94.44 49.77 91.08 44.40 94.38 42.49 Z" />
<path fill="#ffffff" opacity="1.00" d=" M 106.35 42.51 C 107.93 41.47 110.39 42.25 110.83 44.16 C 111.80 46.63 108.46 49.16 106.36 47.47 C 104.58 46.41 104.62 43.60 106.35 42.51 Z" />
<path fill="#ffffff" opacity="1.00" d=" M 118.37 42.50 C 121.53 40.29 124.88 45.49 121.66 47.47 C 118.53 49.84 115.05 44.45 118.37 42.50 Z" />
<path fill="#ffffff" opacity="1.00" d=" M 130.46 42.44 C 132.02 41.51 134.36 42.28 134.81 44.10 C 135.84 46.54 132.58 49.12 130.44 47.53 C 128.55 46.48 128.58 43.48 130.46 42.44 Z" />
<path fill="#ffffff" opacity="1.00" d=" M 142.36 42.51 C 143.87 41.49 146.27 42.21 146.78 44.01 C 147.80 46.17 145.19 48.79 143.01 47.81 C 140.74 47.12 140.32 43.73 142.36 42.51 Z" />
<path fill="#ffffff" opacity="1.00" d=" M 154.40 42.49 C 155.93 41.49 158.34 42.24 158.80 44.08 C 159.73 46.17 157.26 48.70 155.14 47.85 C 152.76 47.25 152.27 43.71 154.40 42.49 Z" />
<path fill="#ffffff" opacity="1.00" d=" M 166.41 42.48 C 169.57 40.32 172.87 45.51 169.66 47.47 C 166.50 49.86 163.03 44.38 166.41 42.48 Z" />
<path fill="#ffffff" opacity="1.00" d=" M 58.34 87.51 C 59.91 86.48 62.32 87.22 62.82 89.09 C 63.71 91.22 61.22 93.74 59.08 92.83 C 56.76 92.19 56.30 88.76 58.34 87.51 Z" />
<path fill="#ffffff" opacity="1.00" d=" M 70.38 87.49 C 71.94 86.49 74.36 87.24 74.81 89.11 C 75.70 91.21 73.25 93.69 71.13 92.85 C 68.76 92.24 68.28 88.73 70.38 87.49 Z" />
<path fill="#ffffff" opacity="1.00" d=" M 82.35 87.51 C 85.54 85.26 88.93 90.56 85.61 92.50 C 82.47 94.79 79.09 89.44 82.35 87.51 Z" />
<path fill="#ffffff" opacity="1.00" d=" M 94.37 87.51 C 95.92 86.45 98.33 87.26 98.84 89.10 C 99.66 91.23 97.29 93.66 95.16 92.86 C 92.79 92.27 92.26 88.75 94.37 87.51 Z" />
<path fill="#ffffff" opacity="1.00" d=" M 106.36 87.50 C 109.55 85.27 112.91 90.55 109.63 92.49 C 106.49 94.80 103.08 89.44 106.36 87.50 Z" />
<path fill="#ffffff" opacity="1.00" d=" M 118.37 87.51 C 121.59 85.23 124.96 90.67 121.55 92.54 C 118.40 94.73 115.12 89.40 118.37 87.51 Z" />
<path fill="#ffffff" opacity="1.00" d=" M 130.37 87.51 C 133.55 85.25 136.92 90.56 133.62 92.50 C 130.49 94.80 127.07 89.43 130.37 87.51 Z" />
<path fill="#ffffff" opacity="1.00" d=" M 142.36 87.50 C 143.90 86.50 146.30 87.20 146.79 89.04 C 147.77 91.16 145.23 93.75 143.08 92.83 C 140.75 92.19 140.30 88.74 142.36 87.50 Z" />
<path fill="#ffffff" opacity="1.00" d=" M 154.36 87.50 C 155.93 86.47 158.37 87.25 158.82 89.13 C 159.70 91.25 157.21 93.71 155.08 92.84 C 152.76 92.19 152.30 88.74 154.36 87.50 Z" />
<path fill="#ffffff" opacity="1.00" d=" M 166.36 87.50 C 169.58 85.25 172.94 90.64 169.56 92.53 C 166.41 94.73 163.12 89.42 166.36 87.50 Z" />
<path fill="#ffffff" opacity="1.00" d=" M 178.37 87.49 C 181.53 85.31 184.87 90.46 181.69 92.45 C 178.55 94.86 175.04 89.45 178.37 87.49 Z" />
<path fill="#ffffff" opacity="1.00" d=" M 46.44 147.46 C 49.62 145.35 52.86 150.54 49.64 152.48 C 46.46 154.85 43.03 149.33 46.44 147.46 Z" />
<path fill="#ffffff" opacity="1.00" d=" M 58.35 147.53 C 59.86 146.46 62.30 147.22 62.79 149.04 C 63.75 151.16 61.28 153.70 59.13 152.85 C 56.79 152.25 56.26 148.76 58.35 147.53 Z" />
<path fill="#ffffff" opacity="1.00" d=" M 70.39 147.49 C 71.96 146.46 74.36 147.27 74.84 149.13 C 75.67 151.26 73.21 153.72 71.08 152.83 C 68.75 152.20 68.29 148.69 70.39 147.49 Z" />
<path fill="#ffffff" opacity="1.00" d=" M 82.33 147.55 C 83.85 146.41 86.33 147.24 86.82 149.09 C 87.70 151.25 85.18 153.76 83.03 152.81 C 80.77 152.16 80.31 148.76 82.33 147.55 Z" />
<path fill="#ffffff" opacity="1.00" d=" M 94.38 147.49 C 97.55 145.29 100.90 150.53 97.64 152.48 C 94.49 154.82 91.06 149.42 94.38 147.49 Z" />
<path fill="#ffffff" opacity="1.00" d=" M 106.36 147.50 C 109.54 145.28 112.91 150.52 109.64 152.48 C 106.51 154.82 103.07 149.44 106.36 147.50 Z" />
<path fill="#ffffff" opacity="1.00" d=" M 118.40 147.48 C 119.96 146.49 122.35 147.25 122.81 149.10 C 123.72 151.24 121.17 153.77 119.03 152.82 C 116.73 152.14 116.32 148.68 118.40 147.48 Z" />
<path fill="#ffffff" opacity="1.00" d=" M 130.40 147.48 C 133.61 145.30 136.90 150.59 133.60 152.51 C 130.44 154.79 127.08 149.37 130.40 147.48 Z" />
<path fill="#ffffff" opacity="1.00" d=" M 142.35 147.51 C 143.90 146.48 146.34 147.22 146.80 149.09 C 147.75 151.22 145.17 153.77 143.03 152.81 C 140.74 152.14 140.32 148.74 142.35 147.51 Z" />
<path fill="#ffffff" opacity="1.00" d=" M 154.36 147.50 C 157.55 145.28 160.91 150.53 157.63 152.49 C 154.49 154.80 151.08 149.44 154.36 147.50 Z" />
<path fill="#ffffff" opacity="1.00" d=" M 166.40 147.48 C 169.59 145.30 172.89 150.57 169.62 152.50 C 166.45 154.81 163.06 149.38 166.40 147.48 Z" />
<path fill="#ffffff" opacity="1.00" d=" M 178.37 147.49 C 179.93 146.49 182.36 147.24 182.81 149.11 C 183.72 151.23 181.19 153.75 179.06 152.82 C 176.74 152.17 176.31 148.72 178.37 147.49 Z" />
<path fill="#ffffff" opacity="1.00" d=" M 190.38 147.49 C 191.91 146.50 194.30 147.21 194.78 149.03 C 195.77 151.17 193.23 153.74 191.07 152.84 C 188.75 152.17 188.30 148.72 190.38 147.49 Z" />
</g>
</svg>
