<?xml version="1.0" encoding="UTF-8" ?>
<!DOCTYPE svg PUBLIC "-//W3C//DTD SVG 1.1//EN" "http://www.w3.org/Graphics/SVG/1.1/DTD/svg11.dtd">
<svg width="96pt" height="96pt" viewBox="0 0 96 96" version="1.1" xmlns="http://www.w3.org/2000/svg">
<g id="#4dd0e1ff">
<path fill="#4dd0e1" opacity="1.00" d=" M 59.79 25.95 C 61.12 21.70 66.58 22.72 70.00 21.88 C 70.00 24.64 69.99 27.40 70.01 30.16 C 69.41 30.03 68.20 29.77 67.59 29.64 C 67.19 29.63 66.38 29.63 65.98 29.62 C 65.85 28.86 65.60 27.34 65.47 26.57 C 63.75 25.67 61.66 26.10 59.79 25.95 Z" />
<path fill="#4dd0e1" opacity="1.00" d=" M 9.54 52.01 C 15.70 51.96 21.86 52.03 28.03 51.98 C 27.22 53.31 26.42 54.65 25.67 56.02 C 20.16 55.87 14.64 56.24 9.14 55.84 C 7.49 55.08 7.72 52.42 9.54 52.01 Z" />
<path fill="#4dd0e1" opacity="1.00" d=" M 71.11 63.13 C 74.08 59.35 79.04 57.72 83.72 58.12 C 88.47 58.61 92.61 61.81 94.76 66.00 C 92.84 66.29 90.92 66.55 89.00 66.77 C 85.44 67.38 81.36 66.98 78.40 69.41 C 76.18 71.10 74.07 72.94 71.94 74.73 C 70.93 75.15 69.92 77.44 68.78 76.57 C 68.62 75.92 68.31 74.61 68.16 73.96 C 68.05 70.18 68.55 66.10 71.11 63.13 Z" />
<path fill="#4dd0e1" opacity="1.00" d=" M 22.68 63.82 C 28.15 60.14 35.81 58.42 41.65 62.26 C 45.82 64.67 47.61 69.45 48.20 73.99 C 46.82 73.99 45.45 73.99 44.07 74.00 C 42.18 74.00 40.29 74.01 38.40 74.01 C 35.47 74.00 32.54 74.00 29.60 74.01 C 27.70 74.01 25.81 74.00 23.91 74.00 C 21.26 74.01 18.60 74.00 15.95 73.98 C 17.14 70.00 19.63 66.57 22.68 63.82 Z" />
</g>
<g id="#ffb74cff">
<path fill="#ffb74c" opacity="1.00" d=" M 70.00 21.88 C 72.40 22.20 74.61 24.44 73.85 26.98 C 73.49 28.84 71.65 29.71 70.01 30.16 C 69.99 27.40 70.00 24.64 70.00 21.88 Z" />
<path fill="#ffb74c" opacity="1.00" d=" M 2.00 34.00 C 10.67 34.01 19.33 34.00 28.00 34.01 C 28.01 40.00 27.98 45.99 28.03 51.98 C 21.86 52.03 15.70 51.96 9.54 52.01 C 7.03 52.04 4.51 51.98 2.00 52.00 C 2.00 46.00 2.00 40.00 2.00 34.00 Z" />
</g>
<g id="#465b65ff">
<path fill="#465b65" opacity="1.00" d=" M 49.12 26.21 C 52.66 25.72 56.24 26.15 59.79 25.95 C 61.66 26.10 63.75 25.67 65.47 26.57 C 65.60 27.34 65.85 28.86 65.98 29.62 C 64.97 29.69 63.96 29.77 62.96 29.89 C 58.64 30.12 54.28 30.03 49.95 29.92 C 47.89 30.17 47.28 26.92 49.12 26.21 Z" />
<path fill="#465b65" opacity="1.00" d=" M 78.40 69.41 C 81.36 66.98 85.44 67.38 89.00 66.77 C 93.95 71.49 92.36 80.71 85.90 83.17 C 79.84 86.00 72.44 81.27 71.94 74.73 C 74.07 72.94 76.18 71.10 78.40 69.41 M 82.11 69.78 C 83.13 71.69 85.08 76.20 81.27 75.83 C 80.15 74.51 79.17 73.08 78.21 71.65 C 76.86 75.03 80.01 79.43 83.69 77.60 C 87.52 75.88 86.03 70.22 82.11 69.78 Z" />
<path fill="#465b65" opacity="1.00" d=" M 23.91 74.00 C 25.81 74.00 27.70 74.01 29.60 74.01 C 30.49 75.82 31.61 78.17 34.03 78.00 C 36.42 78.13 37.46 75.76 38.40 74.01 C 40.29 74.01 42.18 74.00 44.07 74.00 C 43.88 78.90 40.10 83.53 35.06 83.91 C 29.29 84.72 24.02 79.69 23.91 74.00 Z" />
</g>
<g id="#bcaaa4ff">
<path fill="#bcaaa4" opacity="1.00" d=" M 2.00 28.00 C 10.67 28.00 19.33 28.00 28.00 28.00 C 28.00 30.00 28.00 32.00 28.00 34.01 C 19.33 34.00 10.67 34.01 2.00 34.00 C 2.00 32.00 2.00 30.00 2.00 28.00 Z" />
</g>
<g id="#00acc1ff">
<path fill="#00acc1" opacity="1.00" d=" M 62.96 29.89 C 63.96 29.77 64.97 29.69 65.98 29.62 C 66.38 29.63 67.19 29.63 67.59 29.64 C 73.70 35.76 78.88 42.89 82.19 50.91 C 83.09 53.20 84.33 55.59 83.72 58.12 C 79.04 57.72 74.08 59.35 71.11 63.13 C 68.55 66.10 68.05 70.18 68.16 73.96 C 61.50 74.05 54.85 73.98 48.20 73.99 C 47.61 69.45 45.82 64.67 41.65 62.26 C 35.81 58.42 28.15 60.14 22.68 63.82 C 23.20 61.06 24.25 58.44 25.67 56.02 C 26.42 54.65 27.22 53.31 28.03 51.98 L 28.20 52.04 C 34.31 54.11 40.80 55.40 47.26 54.54 C 46.29 58.13 46.16 62.35 48.59 65.42 C 51.17 68.73 56.28 68.67 59.61 66.56 C 63.14 64.17 64.73 59.90 65.52 55.89 C 67.02 47.19 65.86 38.18 62.96 29.89 Z" />
<path fill="#00acc1" opacity="1.00" d=" M 82.11 69.78 C 86.03 70.22 87.52 75.88 83.69 77.60 C 80.01 79.43 76.86 75.03 78.21 71.65 C 79.17 73.08 80.15 74.51 81.27 75.83 C 85.08 76.20 83.13 71.69 82.11 69.78 Z" />
<path fill="#00acc1" opacity="1.00" d=" M 29.60 74.01 C 32.54 74.00 35.47 74.00 38.40 74.01 C 37.46 75.76 36.42 78.13 34.03 78.00 C 31.61 78.17 30.49 75.82 29.60 74.01 Z" />
</g>
<g id="#37474fff">
<path fill="#37474f" opacity="1.00" d=" M 28.20 52.04 C 28.50 49.67 29.37 46.91 31.97 46.23 C 36.30 45.71 40.67 46.14 45.02 45.98 C 47.58 46.10 50.62 45.50 52.65 47.47 C 54.06 48.62 54.30 50.51 54.69 52.16 C 52.50 53.66 49.85 54.18 47.26 54.54 C 40.80 55.40 34.31 54.11 28.20 52.04 Z" />
</g>
</svg>
