<?xml version="1.0" encoding="UTF-8" ?>
<!DOCTYPE svg PUBLIC "-//W3C//DTD SVG 1.1//EN" "http://www.w3.org/Graphics/SVG/1.1/DTD/svg11.dtd">
<svg width="700pt" height="703pt" viewBox="0 0 700 703" version="1.1" xmlns="http://www.w3.org/2000/svg">
<g id="#ffffffff">
</g>
<g id="#fff112ff">
<path fill="#fff112" opacity="1.00" d=" M 337.78 0.00 L 374.83 0.00 C 377.33 0.87 379.92 1.54 382.59 1.60 C 432.44 6.26 481.25 21.90 524.53 47.07 C 588.14 83.73 639.54 141.01 669.49 208.02 C 683.87 241.05 693.72 276.15 697.51 312.02 C 698.55 320.96 698.79 329.96 700.00 338.88 L 700.00 367.00 C 697.27 387.75 695.98 408.79 690.73 429.15 C 682.13 466.71 667.37 502.87 647.01 535.60 C 639.50 546.80 632.26 558.23 623.64 568.63 C 618.32 574.99 613.37 581.67 607.50 587.54 C 603.19 591.88 599.41 596.73 594.88 600.86 C 587.79 607.21 581.19 614.12 573.59 619.90 C 517.85 667.02 446.76 695.42 374.00 700.50 C 362.05 701.99 349.99 701.29 337.98 701.44 C 313.08 700.17 288.21 697.14 264.01 690.96 C 200.61 675.34 141.93 641.36 96.63 594.35 C 50.83 546.93 18.54 486.43 5.48 421.77 C 2.78 410.43 1.70 398.79 0.00 387.28 L 0.00 310.89 C 2.10 301.07 2.80 291.01 5.09 281.22 C 16.30 225.59 41.21 172.72 77.29 128.89 C 121.46 74.80 181.98 34.02 249.11 14.45 C 277.92 5.98 307.80 1.22 337.78 0.00 M 314.03 171.99 C 274.98 178.58 237.88 193.66 203.09 212.24 C 185.68 221.42 168.87 231.70 152.58 242.75 C 137.35 253.68 122.00 264.53 107.99 277.01 C 89.89 291.82 73.48 308.56 58.00 326.05 C 46.16 340.47 34.73 355.44 26.23 372.13 C 24.95 375.16 23.16 378.28 23.34 381.66 C 42.43 394.11 61.70 406.32 80.14 419.72 C 91.54 427.71 102.60 436.18 114.34 443.67 C 148.02 465.87 184.39 483.99 222.45 497.37 C 264.03 511.82 307.90 520.40 352.01 520.24 C 379.37 520.13 406.53 515.72 433.03 509.16 C 466.66 500.41 499.54 488.71 531.03 474.03 C 563.22 459.29 594.44 442.10 622.98 421.07 C 642.38 407.08 659.66 390.28 674.74 371.74 C 663.45 356.77 652.07 341.86 640.72 326.95 C 609.43 288.40 570.30 256.81 528.36 230.54 C 490.30 206.33 449.21 185.83 405.03 175.69 C 375.29 168.89 344.20 166.78 314.03 171.99 Z" />
<path fill="#fff112" opacity="1.00" d=" M 347.11 186.16 C 368.80 184.74 390.69 189.58 410.31 198.77 C 452.36 218.59 484.17 259.10 492.77 304.86 C 500.07 343.01 491.06 383.89 468.66 415.58 C 458.70 429.46 445.91 441.09 432.25 451.24 C 417.76 461.59 401.37 469.35 384.03 473.51 C 360.43 479.23 335.40 480.25 311.74 474.32 C 291.34 469.24 272.24 459.19 256.35 445.45 C 224.32 417.38 205.85 375.40 204.16 333.07 C 202.71 304.06 210.88 274.45 227.68 250.66 C 234.86 240.09 243.76 230.76 253.71 222.77 C 279.96 201.10 313.32 188.81 347.11 186.16 M 323.81 259.91 C 314.74 262.61 306.80 267.94 299.01 273.12 C 307.15 276.93 315.91 279.15 324.51 281.63 C 330.59 272.01 339.65 264.93 347.55 256.91 C 339.54 255.08 331.43 257.58 323.81 259.91 M 357.17 258.35 C 351.95 261.16 347.58 265.26 343.33 269.33 C 338.96 273.70 334.71 278.22 331.28 283.39 C 340.91 286.74 350.56 290.09 360.35 292.96 C 363.39 284.04 366.26 275.06 369.30 266.14 C 370.10 263.90 370.67 261.59 371.03 259.23 C 366.73 257.37 361.58 256.14 357.17 258.35 M 371.13 280.93 C 369.63 285.57 367.74 290.11 366.93 294.94 C 375.87 298.65 385.20 301.35 394.56 303.78 C 394.72 294.16 392.96 284.63 390.38 275.40 C 389.34 271.83 388.65 267.88 385.94 265.14 C 383.72 262.92 380.50 262.38 377.64 261.47 C 375.21 267.87 373.37 274.47 371.13 280.93 M 395.69 270.69 C 396.39 275.84 398.04 280.80 398.71 285.95 C 399.70 291.98 399.73 298.13 400.90 304.14 C 401.01 306.23 403.36 306.57 404.85 307.38 C 412.61 310.41 420.65 312.74 428.79 314.48 C 424.53 301.15 416.98 288.89 406.79 279.27 C 403.35 276.10 399.94 272.75 395.69 270.69 M 272.14 309.76 C 278.03 313.06 284.74 314.57 291.10 316.74 C 295.28 317.81 299.41 319.82 303.77 319.68 C 307.29 314.72 308.41 308.57 311.28 303.26 C 314.11 298.00 317.26 292.91 319.88 287.52 C 313.17 284.38 306.03 282.34 298.96 280.22 C 296.69 279.74 294.40 278.52 292.06 278.88 C 283.33 287.52 275.14 297.65 272.14 309.76 M 326.10 289.01 C 321.17 297.87 315.90 306.62 312.29 316.13 C 311.42 318.23 311.19 320.50 311.04 322.75 C 323.24 326.35 335.18 330.81 347.46 334.14 C 351.12 322.65 354.97 311.22 358.59 299.72 C 347.78 296.10 337.00 292.37 326.10 289.01 M 364.33 301.09 C 360.53 312.81 357.06 324.63 353.36 336.38 C 365.29 340.14 377.20 343.97 389.16 347.66 C 392.37 335.57 394.87 323.18 394.65 310.61 C 384.57 307.33 374.44 304.23 364.33 301.09 M 401.29 313.15 C 400.58 319.15 400.32 325.21 399.14 331.16 C 397.92 337.32 396.37 343.42 395.45 349.64 C 406.79 353.52 418.05 358.06 429.93 359.97 C 431.65 350.20 433.53 340.27 432.56 330.31 C 432.12 327.31 431.36 323.99 428.95 321.94 C 426.98 320.78 424.73 320.21 422.58 319.48 C 415.50 317.32 408.56 314.64 401.29 313.15 M 269.70 316.43 C 264.85 328.60 266.64 342.00 268.46 354.59 C 277.73 357.40 286.89 360.62 296.29 362.96 C 296.63 350.62 299.80 338.64 301.80 326.52 C 291.14 323.04 280.41 319.78 269.70 316.43 M 307.88 329.22 C 304.76 340.97 302.19 353.05 302.55 365.27 C 313.13 368.61 323.65 372.21 334.36 375.13 C 338.18 363.68 341.85 352.18 345.63 340.71 C 333.22 336.38 320.73 332.00 307.88 329.22 M 340.27 377.29 C 350.39 380.30 360.32 384.08 370.56 386.60 C 373.48 383.68 375.41 379.97 377.43 376.42 C 381.33 369.13 384.96 361.59 386.82 353.49 C 375.13 349.61 363.31 346.11 351.56 342.41 C 347.64 353.98 344.08 365.68 340.27 377.29 M 393.28 355.97 C 390.03 362.56 387.97 369.68 384.27 376.05 C 381.99 380.22 379.19 384.17 377.82 388.78 C 386.60 391.45 395.21 394.69 403.96 397.48 C 405.04 397.74 406.38 398.24 407.37 397.43 C 411.24 394.28 414.29 390.26 417.32 386.32 C 421.63 380.43 425.61 373.98 426.88 366.69 C 415.70 363.06 404.64 358.93 393.28 355.97 M 270.05 361.96 C 274.11 374.32 280.95 385.72 290.06 395.01 C 293.30 398.55 296.68 402.06 300.91 404.43 C 299.12 392.95 297.19 381.47 296.13 369.88 C 287.39 367.40 278.76 364.57 270.05 361.96 M 302.68 372.14 C 303.15 382.79 303.34 393.96 308.21 403.70 C 310.77 409.19 315.65 413.70 321.63 415.09 C 326.32 404.28 329.63 392.92 332.44 381.49 C 322.57 378.23 312.66 375.04 302.68 372.14 M 331.85 403.78 C 330.54 408.35 328.67 412.78 327.98 417.51 C 336.71 419.16 345.24 415.26 351.88 409.87 C 357.67 405.05 363.12 399.42 365.94 392.31 C 356.98 388.73 347.48 386.78 338.41 383.51 C 335.93 390.16 334.03 397.02 331.85 403.78 M 373.46 394.57 C 367.77 400.83 362.41 407.43 355.97 412.95 C 353.39 415.23 350.68 417.44 348.83 420.40 C 360.01 419.77 370.95 416.93 381.51 413.31 C 388.07 410.85 394.91 408.41 400.15 403.56 C 391.64 399.55 382.49 397.09 373.46 394.57 Z" />
</g>
<g id="#222021ff">
<path fill="#222021" opacity="1.00" d=" M 314.03 171.99 C 344.20 166.78 375.29 168.89 405.03 175.69 C 449.21 185.83 490.30 206.33 528.36 230.54 C 570.30 256.81 609.43 288.40 640.72 326.95 C 652.07 341.86 663.45 356.77 674.74 371.74 C 659.66 390.28 642.38 407.08 622.98 421.07 C 594.44 442.10 563.22 459.29 531.03 474.03 C 499.54 488.71 466.66 500.41 433.03 509.16 C 406.53 515.72 379.37 520.13 352.01 520.24 C 307.90 520.40 264.03 511.82 222.45 497.37 C 184.39 483.99 148.02 465.87 114.34 443.67 C 102.60 436.18 91.54 427.71 80.14 419.72 C 61.70 406.32 42.43 394.11 23.34 381.66 C 23.16 378.28 24.95 375.16 26.23 372.13 C 34.73 355.44 46.16 340.47 58.00 326.05 C 73.48 308.56 89.89 291.82 107.99 277.01 C 122.00 264.53 137.35 253.68 152.58 242.75 C 168.87 231.70 185.68 221.42 203.09 212.24 C 237.88 193.66 274.98 178.58 314.03 171.99 M 347.11 186.16 C 313.32 188.81 279.96 201.10 253.71 222.77 C 243.76 230.76 234.86 240.09 227.68 250.66 C 210.88 274.45 202.71 304.06 204.16 333.07 C 205.85 375.40 224.32 417.38 256.35 445.45 C 272.24 459.19 291.34 469.24 311.74 474.32 C 335.40 480.25 360.43 479.23 384.03 473.51 C 401.37 469.35 417.76 461.59 432.25 451.24 C 445.91 441.09 458.70 429.46 468.66 415.58 C 491.06 383.89 500.07 343.01 492.77 304.86 C 484.17 259.10 452.36 218.59 410.31 198.77 C 390.69 189.58 368.80 184.74 347.11 186.16 Z" />
<path fill="#222021" opacity="1.00" d=" M 323.81 259.91 C 331.43 257.58 339.54 255.08 347.55 256.91 C 339.65 264.93 330.59 272.01 324.51 281.63 C 315.91 279.15 307.15 276.93 299.01 273.12 C 306.80 267.94 314.74 262.61 323.81 259.91 Z" />
<path fill="#222021" opacity="1.00" d=" M 357.17 258.35 C 361.58 256.14 366.73 257.37 371.03 259.23 C 370.67 261.59 370.10 263.90 369.30 266.14 C 366.26 275.06 363.39 284.04 360.35 292.96 C 350.56 290.09 340.91 286.74 331.28 283.39 C 334.71 278.22 338.96 273.70 343.33 269.33 C 347.58 265.26 351.95 261.16 357.17 258.35 Z" />
<path fill="#222021" opacity="1.00" d=" M 371.13 280.93 C 373.37 274.47 375.21 267.87 377.64 261.47 C 380.50 262.38 383.72 262.92 385.94 265.14 C 388.65 267.88 389.34 271.83 390.38 275.40 C 392.96 284.63 394.72 294.16 394.56 303.78 C 385.20 301.35 375.87 298.65 366.93 294.94 C 367.74 290.11 369.63 285.57 371.13 280.93 Z" />
<path fill="#222021" opacity="1.00" d=" M 395.69 270.69 C 399.94 272.75 403.35 276.10 406.79 279.27 C 416.98 288.89 424.53 301.15 428.79 314.48 C 420.65 312.74 412.61 310.41 404.85 307.38 C 403.36 306.57 401.01 306.23 400.90 304.14 C 399.73 298.13 399.70 291.98 398.71 285.95 C 398.04 280.80 396.39 275.84 395.69 270.69 Z" />
<path fill="#222021" opacity="1.00" d=" M 272.14 309.76 C 275.14 297.65 283.33 287.52 292.06 278.88 C 294.40 278.52 296.69 279.74 298.96 280.22 C 306.03 282.34 313.17 284.38 319.88 287.52 C 317.26 292.91 314.11 298.00 311.28 303.26 C 308.41 308.57 307.29 314.72 303.77 319.68 C 299.41 319.82 295.28 317.81 291.10 316.74 C 284.74 314.57 278.03 313.06 272.14 309.76 Z" />
<path fill="#222021" opacity="1.00" d=" M 326.10 289.01 C 337.00 292.37 347.78 296.10 358.59 299.72 C 354.97 311.22 351.12 322.65 347.46 334.14 C 335.18 330.81 323.24 326.35 311.04 322.75 C 311.19 320.50 311.42 318.23 312.29 316.13 C 315.90 306.62 321.17 297.87 326.10 289.01 Z" />
<path fill="#222021" opacity="1.00" d=" M 364.33 301.09 C 374.44 304.23 384.57 307.33 394.65 310.61 C 394.87 323.18 392.37 335.57 389.16 347.66 C 377.20 343.97 365.29 340.14 353.36 336.38 C 357.06 324.63 360.53 312.81 364.33 301.09 Z" />
<path fill="#222021" opacity="1.00" d=" M 401.29 313.15 C 408.56 314.64 415.50 317.32 422.58 319.48 C 424.73 320.21 426.98 320.78 428.95 321.94 C 431.36 323.99 432.12 327.31 432.56 330.31 C 433.53 340.27 431.65 350.20 429.93 359.97 C 418.05 358.06 406.79 353.52 395.45 349.64 C 396.37 343.42 397.92 337.32 399.14 331.16 C 400.32 325.21 400.58 319.15 401.29 313.15 Z" />
<path fill="#222021" opacity="1.00" d=" M 269.70 316.43 C 280.41 319.78 291.14 323.04 301.80 326.52 C 299.80 338.64 296.63 350.62 296.29 362.96 C 286.89 360.62 277.73 357.40 268.46 354.59 C 266.64 342.00 264.85 328.60 269.70 316.43 Z" />
<path fill="#222021" opacity="1.00" d=" M 307.88 329.22 C 320.73 332.00 333.22 336.38 345.63 340.71 C 341.85 352.18 338.18 363.68 334.36 375.13 C 323.65 372.21 313.13 368.61 302.55 365.27 C 302.19 353.05 304.76 340.97 307.88 329.22 Z" />
<path fill="#222021" opacity="1.00" d=" M 340.27 377.29 C 344.08 365.68 347.64 353.98 351.56 342.41 C 363.31 346.11 375.13 349.61 386.82 353.49 C 384.96 361.59 381.33 369.13 377.43 376.42 C 375.41 379.97 373.48 383.68 370.56 386.60 C 360.32 384.08 350.39 380.30 340.27 377.29 Z" />
<path fill="#222021" opacity="1.00" d=" M 393.28 355.97 C 404.64 358.93 415.70 363.06 426.88 366.69 C 425.61 373.98 421.63 380.43 417.32 386.32 C 414.29 390.26 411.24 394.28 407.37 397.43 C 406.38 398.24 405.04 397.74 403.96 397.48 C 395.21 394.69 386.60 391.45 377.82 388.78 C 379.19 384.17 381.99 380.22 384.27 376.05 C 387.97 369.68 390.03 362.56 393.28 355.97 Z" />
<path fill="#222021" opacity="1.00" d=" M 270.05 361.96 C 278.76 364.57 287.39 367.40 296.13 369.88 C 297.19 381.47 299.12 392.95 300.91 404.43 C 296.68 402.06 293.30 398.55 290.06 395.01 C 280.95 385.72 274.11 374.32 270.05 361.96 Z" />
<path fill="#222021" opacity="1.00" d=" M 302.68 372.14 C 312.66 375.04 322.57 378.23 332.44 381.49 C 329.63 392.92 326.32 404.28 321.63 415.09 C 315.65 413.70 310.77 409.19 308.21 403.70 C 303.34 393.96 303.15 382.79 302.68 372.14 Z" />
<path fill="#222021" opacity="1.00" d=" M 331.85 403.78 C 334.03 397.02 335.93 390.16 338.41 383.51 C 347.48 386.78 356.98 388.73 365.94 392.31 C 363.12 399.42 357.67 405.05 351.88 409.87 C 345.24 415.26 336.71 419.16 327.98 417.51 C 328.67 412.78 330.54 408.35 331.85 403.78 Z" />
<path fill="#222021" opacity="1.00" d=" M 373.46 394.57 C 382.49 397.09 391.64 399.55 400.15 403.56 C 394.91 408.41 388.07 410.85 381.51 413.31 C 370.95 416.93 360.01 419.77 348.83 420.40 C 350.68 417.44 353.39 415.23 355.97 412.95 C 362.41 407.43 367.77 400.83 373.46 394.57 Z" />
</g>
</svg>
